<svg width="42" height="40" viewBox="0 0 42 40" fill="none" xmlns="http://www.w3.org/2000/svg">
<path d="M40.5 30.5H37.5C38.4816 29.2059 39.0088 27.6242 39 26C39 24.0108 38.2098 22.1032 36.8033 20.6967C35.3968 19.2901 33.4891 18.5 31.5 18.5H10.5C8.51088 18.5 6.60322 19.2901 5.1967 20.6967C3.79018 22.1032 3 24.0108 3 26C2.99119 27.6242 3.51843 29.2059 4.5 30.5H1.5C1.10218 30.5 0.720644 30.658 0.43934 30.9393C0.158035 31.2206 0 31.6021 0 32C0 32.3978 0.158035 32.7793 0.43934 33.0606C0.720644 33.3419 1.10218 33.5 1.5 33.5H3V38C3 38.3978 3.15804 38.7793 3.43934 39.0606C3.72064 39.3419 4.10218 39.5 4.5 39.5H37.5C37.8978 39.5 38.2794 39.3419 38.5607 39.0606C38.842 38.7793 39 38.3978 39 38V33.5H40.5C40.8978 33.5 41.2794 33.3419 41.5607 33.0606C41.842 32.7793 42 32.3978 42 32C42 31.6021 41.842 31.2206 41.5607 30.9393C41.2794 30.658 40.8978 30.5 40.5 30.5ZM6 26C6 24.8065 6.47411 23.6619 7.31802 22.818C8.16193 21.9741 9.30653 21.5 10.5 21.5H11.385L10.935 21.935C10.7944 22.0744 10.6828 22.2403 10.6067 22.4231C10.5305 22.6059 10.4913 22.802 10.4913 23C10.4913 23.198 10.5305 23.394 10.6067 23.5768C10.6828 23.7596 10.7944 23.9255 10.935 24.065C11.0744 24.2056 11.2403 24.3172 11.4231 24.3933C11.6059 24.4695 11.802 24.5087 12 24.5087C12.198 24.5087 12.3941 24.4695 12.5769 24.3933C12.7597 24.3172 12.9256 24.2056 13.065 24.065L15.615 21.5H18.885L18.435 21.935C18.2944 22.0744 18.1828 22.2403 18.1067 22.4231C18.0305 22.6059 17.9913 22.802 17.9913 23C17.9913 23.198 18.0305 23.394 18.1067 23.5768C18.1828 23.7596 18.2944 23.9255 18.435 24.065C18.5744 24.2056 18.7403 24.3172 18.9231 24.3933C19.1059 24.4695 19.302 24.5087 19.5 24.5087C19.698 24.5087 19.8941 24.4695 20.0769 24.3933C20.2597 24.3172 20.4256 24.2056 20.565 24.065L23.115 21.5H26.385L25.935 21.935C25.7944 22.0744 25.6828 22.2403 25.6067 22.4231C25.5305 22.6059 25.4913 22.802 25.4913 23C25.4913 23.198 25.5305 23.394 25.6067 23.5768C25.6828 23.7596 25.7944 23.9255 25.935 24.065C26.0744 24.2056 26.2403 24.3172 26.4231 24.3933C26.6059 24.4695 26.802 24.5087 27 24.5087C27.198 24.5087 27.3941 24.4695 27.5769 24.3933C27.7597 24.3172 27.9256 24.2056 28.065 24.065L30.615 21.5H31.5C32.6935 21.5 33.8381 21.9741 34.682 22.818C35.5259 23.6619 36 24.8065 36 26C36 27.1934 35.5259 28.338 34.682 29.182C33.8381 30.0259 32.6935 30.5 31.5 30.5H10.5C9.30653 30.5 8.16193 30.0259 7.31802 29.182C6.47411 28.338 6 27.1934 6 26ZM36 36.5H6V33.5H36V36.5ZM9.255 3.49997L10.755 1.24997C10.9895 0.95891 11.3241 0.765856 11.6934 0.708621C12.0628 0.651385 12.4402 0.734091 12.7517 0.940539C13.0633 1.14699 13.2865 1.46231 13.3778 1.82474C13.469 2.18718 13.4217 2.57062 13.245 2.89997L11.745 5.14997C11.571 5.418 11.5081 5.74324 11.5697 6.05681C11.6313 6.37038 11.8125 6.64767 12.075 6.82997C12.5353 7.13416 12.9309 7.52636 13.239 7.98401C13.5472 8.44165 13.7618 8.95571 13.8705 9.49661C13.9793 10.0375 13.98 10.5946 13.8726 11.1358C13.7653 11.6769 13.552 12.1915 13.245 12.65L11.745 14.9C11.6008 15.0925 11.4124 15.2475 11.1957 15.3519C10.979 15.4563 10.7404 15.5071 10.5 15.5C10.2051 15.5033 9.91656 15.4142 9.675 15.245C9.34618 15.025 9.11756 14.6841 9.03889 14.2964C8.96023 13.9087 9.0379 13.5057 9.255 13.175L10.755 10.925C10.9368 10.6659 11.0117 10.3468 10.9642 10.0339C10.9167 9.72097 10.7505 9.43842 10.5 9.24497C9.57902 8.64323 8.93203 7.70304 8.69903 6.62786C8.46602 5.55268 8.66576 4.429 9.255 3.49997ZM19.005 3.49997L20.505 1.24997C20.7395 0.95891 21.0741 0.765856 21.4435 0.708621C21.8128 0.651385 22.1902 0.734091 22.5017 0.940539C22.8133 1.14699 23.0365 1.46231 23.1278 1.82474C23.219 2.18718 23.1717 2.57062 22.995 2.89997L21.495 5.14997C21.321 5.418 21.2581 5.74324 21.3197 6.05681C21.3813 6.37038 21.5625 6.64767 21.825 6.82997C22.2853 7.13416 22.6809 7.52636 22.989 7.98401C23.2972 8.44165 23.5118 8.95571 23.6205 9.49661C23.7293 10.0375 23.73 10.5946 23.6226 11.1358C23.5153 11.6769 23.302 12.1915 22.995 12.65L21.495 14.9C21.3591 15.1063 21.1744 15.2759 20.9572 15.3937C20.74 15.5114 20.4971 15.5737 20.25 15.575C19.9551 15.5783 19.6666 15.4892 19.425 15.32C19.0962 15.1 18.8676 14.7591 18.7889 14.3714C18.7102 13.9837 18.7879 13.5807 19.005 13.25L20.505 11C20.679 10.7319 20.7419 10.4067 20.6803 10.0931C20.6187 9.77956 20.4375 9.50227 20.175 9.31997C19.7147 9.01578 19.3191 8.62358 19.011 8.16594C18.7028 7.70829 18.4882 7.19423 18.3795 6.65333C18.2707 6.11243 18.27 5.55536 18.3774 5.01419C18.4847 4.47301 18.698 3.9584 19.005 3.49997ZM28.755 3.49997L30.255 1.24997C30.3537 1.06605 30.4896 0.904741 30.6542 0.776359C30.8187 0.647978 31.0083 0.55535 31.2107 0.504399C31.413 0.453447 31.6239 0.445294 31.8296 0.480461C32.0353 0.515627 32.2314 0.593339 32.4054 0.708627C32.5794 0.823914 32.7274 0.974241 32.84 1.14999C32.9525 1.32574 33.0272 1.52305 33.0591 1.7293C33.0911 1.93555 33.0797 2.1462 33.0256 2.34778C32.9715 2.54936 32.8759 2.73743 32.745 2.89997L31.245 5.14997C31.071 5.418 31.0081 5.74324 31.0697 6.05681C31.1313 6.37038 31.3125 6.64767 31.575 6.82997C32.0353 7.13416 32.4309 7.52636 32.739 7.98401C33.0472 8.44165 33.2618 8.95571 33.3705 9.49661C33.4793 10.0375 33.48 10.5946 33.3726 11.1358C33.2653 11.6769 33.052 12.1915 32.745 12.65L31.245 14.9C31.1008 15.0925 30.9124 15.2475 30.6957 15.3519C30.479 15.4563 30.2404 15.5071 30 15.5C29.7051 15.5033 29.4166 15.4142 29.175 15.245C28.8462 15.025 28.6176 14.6841 28.5389 14.2964C28.4602 13.9087 28.5379 13.5057 28.755 13.175L30.255 10.925C30.4368 10.6659 30.5117 10.3468 30.4642 10.0339C30.4167 9.72097 30.2505 9.43842 30 9.24497C29.079 8.64323 28.432 7.70304 28.199 6.62786C27.966 5.55268 28.1658 4.429 28.755 3.49997Z" fill="#E47E7A"/>
</svg>
