<svg width="46" height="28" viewBox="0 0 46 28" fill="none" xmlns="http://www.w3.org/2000/svg">
<path d="M33.8757 1.95938C23.3294 -1.80577 5.67766 0.307974 0.77009 11.2078C-0.359755 14.0327 2.13358 16.8283 5.06162 16.4372C5.06156 16.4374 5.06156 18.2333 5.06156 18.2333H3.39749C2.56911 18.2333 1.89749 18.9042 1.89749 19.7333V22.5751C1.89749 25.4359 4.22513 27.7635 7.0867 27.7635H38.9104C41.772 27.7635 44.0996 25.4359 44.0996 22.5751V19.7333C44.0996 18.9042 43.428 18.2333 42.5996 18.2333H40.9356V16.4374H41.6541C44.2606 16.5151 46.2696 13.6107 45.2267 11.2078C43.6019 7.14155 39.3875 3.84775 33.8757 1.95938ZM41.0996 22.5751C41.0996 23.7821 40.1175 24.7635 38.9104 24.7635H7.0867C5.87966 24.7635 4.89749 23.7821 4.89749 22.5751V21.2333H41.0996V22.5751ZM37.9356 18.2333H8.06156V16.4374H37.9356V18.2333H37.9356ZM42.355 13.0624C42.2788 13.1752 42.0577 13.4374 41.6541 13.4374H4.34305C3.93949 13.4374 3.7183 13.1752 3.64211 13.0624C3.55276 12.9305 3.42166 12.6566 3.55642 12.3211C4.65596 9.56879 7.41592 7.21735 11.096 5.59073L12.4773 8.59312C13.3217 10.3774 16.0096 9.11807 15.2034 7.33913C15.2034 7.33921 13.9176 4.54465 13.9176 4.54465C16.0547 3.88958 18.3942 3.45709 20.8407 3.29531L23.2762 8.5931C24.1134 10.3762 26.8115 9.1181 26.0022 7.33912C26.0022 7.33919 24.1199 3.24478 24.1199 3.24478C27.001 3.34357 29.7587 3.81589 32.2364 4.59152L34.075 8.5931C34.4217 9.35266 35.3296 9.67204 36.0643 9.32845C36.8172 8.98274 37.1468 8.09212 36.8011 7.33919L36.3104 6.27142C39.2803 7.84585 41.4865 9.93242 42.4407 12.3211C42.5755 12.6566 42.4444 12.9305 42.355 13.0624Z" fill="#E47E7A"/>
</svg>
