<svg width="46" height="46" viewBox="0 0 46 46" fill="none" xmlns="http://www.w3.org/2000/svg">
<path d="M0.986793 37.1229L2.22718 40.1049C3.51263 43.2014 6.51083 45.2026 9.8642 45.2026H36.1358C39.4874 45.2026 42.4856 43.2023 43.7747 40.1049L45.0132 37.122C45.2494 36.5523 45.1863 35.9024 44.8438 35.3895C44.5012 34.8765 43.9243 34.5682 43.3077 34.5682H41.3858C41.3859 34.3756 41.3877 17.8537 41.3876 18.0403C41.3876 15.3937 39.235 13.241 36.5902 13.241H36.5884H28.1982C28.4051 12.6607 28.5385 12.0454 28.5385 11.3949C28.5385 8.95263 26.9393 6.89847 24.7412 6.1639C24.765 5.70304 24.8525 5.21908 25.0751 4.90177C25.1887 4.74041 25.3852 4.5466 25.9063 4.47449C26.9159 4.33476 27.6226 3.40267 27.482 2.39306C27.3432 1.38344 26.4039 0.6704 25.4015 0.816434C23.9754 1.01385 22.8197 1.69173 22.0553 2.77797C21.2814 3.87875 21.0669 5.18336 21.0439 6.23072C18.9561 7.02455 17.4616 9.03162 17.4616 11.3949C17.4616 12.0454 17.595 12.6607 17.8018 13.241H9.41348H9.41167C6.76504 13.241 4.61239 15.3937 4.61239 18.0403C4.61251 19.0694 4.61431 35.5618 4.6142 34.5682H2.69232C2.07574 34.5682 1.49881 34.8765 1.15626 35.3895C0.813716 35.9033 0.750615 36.5532 0.986793 37.1229ZM40.3654 38.6878C39.6515 40.4024 37.991 41.5102 36.1358 41.5102H9.8642C8.00903 41.5102 6.34857 40.4033 5.63824 38.6887L5.45975 38.2605C9.93756 38.2605 37.2599 38.2605 40.5421 38.2605L40.3654 38.6878ZM21.1539 11.3949C21.1539 10.3771 21.9814 9.54871 23 9.54871C24.0186 9.54871 24.8462 10.3771 24.8462 11.3949C24.8462 12.4126 24.0186 13.241 23 13.241C21.9814 13.241 21.1539 12.4126 21.1539 11.3949ZM36.5884 16.9333C37.1977 16.9333 37.6935 17.43 37.6935 18.0403V21.2069C37.6881 22.4656 36.6645 23.4877 35.4057 23.4877C34.208 23.4877 33.1178 22.5079 33.1178 21.198C33.1178 20.1785 32.2921 19.3519 31.2717 19.3519C30.2512 19.3519 29.4255 20.1785 29.4255 21.198C29.4255 22.461 28.3979 23.4877 27.1358 23.4877C25.9277 23.4877 24.8462 22.4976 24.8462 21.198C24.8462 20.1785 24.0204 19.3519 23 19.3519C21.9796 19.3519 21.1539 20.1785 21.1539 21.198C21.1539 22.461 20.1262 23.4877 18.8642 23.4877C17.6666 23.4877 16.5763 22.5079 16.5763 21.198C16.5763 20.1785 15.7506 19.3519 14.7302 19.3519C13.7098 19.3519 12.884 20.1785 12.884 21.198C12.884 22.461 11.8564 23.4877 10.5944 23.4877C9.3959 23.4877 8.3123 22.5121 8.30651 21.2073V18.0403C8.30651 17.43 8.8023 16.9333 9.41348 16.9333H36.5884ZM8.30651 26.7274C9.01955 27.0233 9.79298 27.18 10.5944 27.18C12.1989 27.18 13.6593 26.5445 14.7356 25.5114C15.839 26.5887 17.2993 27.18 18.8642 27.18C20.4688 27.18 21.9291 26.5445 23.0054 25.5114C24.1106 26.5887 25.5709 27.18 27.1358 27.18C28.7404 27.18 30.2007 26.5445 31.2771 25.5114C32.3804 26.5887 33.8408 27.18 35.4057 27.18C36.2161 27.18 36.9881 27.0145 37.6935 26.7212V34.5682H8.30651V26.7274Z" fill="#E47E7A"/>
</svg>
