<svg width="40" height="40" viewBox="0 0 40 40" fill="none" xmlns="http://www.w3.org/2000/svg">
<path d="M20 14C18.8133 14 17.6533 14.3519 16.6666 15.0112C15.6799 15.6705 14.9108 16.6075 14.4567 17.7039C14.0026 18.8003 13.8838 20.0067 14.1153 21.1705C14.3468 22.3344 14.9182 23.4035 15.7574 24.2426C16.5965 25.0818 17.6656 25.6532 18.8295 25.8847C19.9933 26.1162 21.1997 25.9974 22.2961 25.5433C23.3925 25.0892 24.3295 24.3201 24.9888 23.3334C25.6481 22.3467 26 21.1867 26 20C26 18.4087 25.3679 16.8826 24.2426 15.7574C23.1174 14.6321 21.5913 14 20 14ZM20 22C19.6044 22 19.2178 21.8827 18.8889 21.6629C18.56 21.4432 18.3036 21.1308 18.1522 20.7654C18.0009 20.3999 17.9613 19.9978 18.0384 19.6098C18.1156 19.2219 18.3061 18.8655 18.5858 18.5858C18.8655 18.3061 19.2219 18.1156 19.6098 18.0384C19.9978 17.9613 20.3999 18.0009 20.7654 18.1522C21.1308 18.3036 21.4432 18.56 21.6629 18.8889C21.8827 19.2178 22 19.6044 22 20C22 20.5304 21.7893 21.0391 21.4142 21.4142C21.0391 21.7893 20.5304 22 20 22ZM39.22 14.46C39.1335 14.1587 38.9774 13.882 38.7643 13.6521C38.5512 13.4222 38.287 13.2457 37.9931 13.1367C37.6992 13.0277 37.3838 12.9893 37.0723 13.0246C36.7608 13.0599 36.462 13.168 36.2 13.34C35.5512 13.7793 34.7835 14.0096 34 14C32.9391 14 31.9217 13.5786 31.1716 12.8284C30.4214 12.0783 30 11.0609 30 10C30.0094 9.53211 29.8545 9.07572 29.5621 8.71028C29.2698 8.34485 28.8586 8.0935 28.4 8C27.7225 7.8541 27.1151 7.48107 26.6786 6.94273C26.2421 6.40438 26.0027 5.73306 26 5.04C26.0053 4.52958 26.1358 4.02825 26.38 3.58C26.5332 3.31125 26.622 3.01062 26.6393 2.70176C26.6567 2.3929 26.6021 2.08422 26.48 1.8C26.3583 1.5204 26.1743 1.27233 25.9421 1.07475C25.7098 0.877161 25.4355 0.735297 25.14 0.66C23.461 0.225765 21.7342 0.0040312 20 0C16.0444 0 12.1776 1.17298 8.8886 3.37061C5.59961 5.56824 3.03616 8.69181 1.52241 12.3463C0.00865805 16.0009 -0.387409 20.0222 0.384296 23.9018C1.156 27.7814 3.06082 31.3451 5.85787 34.1421C8.65492 36.9392 12.2186 38.844 16.0982 39.6157C19.9778 40.3874 23.9991 39.9913 27.6537 38.4776C31.3082 36.9638 34.4318 34.4004 36.6294 31.1114C38.827 27.8224 40 23.9556 40 20C40.0046 18.1256 39.742 16.2602 39.22 14.46ZM5.66 27.06C5.19351 26.1203 4.8249 25.1351 4.56 24.12C4.96894 24.2392 5.32915 24.4858 5.58816 24.824C5.84717 25.1621 5.99146 25.5741 6 26C5.98927 26.3784 5.87136 26.746 5.66 27.06ZM8 30.5C8.91608 29.6921 9.56379 28.6239 9.85656 27.4381C10.1493 26.2523 10.0732 25.0053 9.63839 23.8639C9.20357 22.7225 8.43076 21.741 7.42322 21.0506C6.41568 20.3601 5.22141 19.9936 4 20C4.00325 18.463 4.22548 16.9343 4.66 15.46C5.02378 15.8007 5.50165 15.9932 6 16C6.53043 16.0186 7.04652 15.8257 7.43472 15.4637C7.82292 15.1018 8.05144 14.6004 8.07 14.07C8.08857 13.5396 7.89566 13.0235 7.53371 12.6353C7.17177 12.2471 6.67043 12.0186 6.14 12C7.5446 9.56717 9.56497 7.54702 11.998 6.1427C14.431 4.73837 17.1908 3.99937 20 4C20.6691 4.00034 21.3374 4.04712 22 4.14C21.9801 4.43967 21.9801 4.74033 22 5.04C22.0015 6.3945 22.3926 7.71997 23.1267 8.8583C23.8608 9.99664 24.9068 10.8998 26.14 11.46C26.3384 12.524 26.7507 13.5366 27.3518 14.4367C27.9529 15.3367 28.7304 16.1054 29.6372 16.6962C30.5441 17.2871 31.5613 17.6878 32.6275 17.874C33.6937 18.0603 34.7866 18.0283 35.84 17.78C35.943 18.5156 35.9965 19.2573 36 20C36.001 21.6855 35.7309 23.3602 35.2 24.96C34.2457 24.3435 33.136 24.0106 32 24C30.8496 24.0175 29.7285 24.3655 28.7703 25.0024C27.8121 25.6392 27.0572 26.5382 26.5956 27.5921C26.134 28.646 25.9851 29.8104 26.1667 30.9465C26.3484 32.0826 26.8528 33.1426 27.62 34C24.436 35.7221 20.7621 36.3136 17.1985 35.6778C13.6349 35.0421 10.3922 33.2168 8 30.5ZM30.96 31.66C30.6737 31.4859 30.4358 31.2426 30.2681 30.9526C30.1003 30.6625 30.0082 30.335 30 30C30 29.4696 30.2107 28.9609 30.5858 28.5858C30.9609 28.2107 31.4696 28 32 28C32.2723 28.0062 32.5405 28.0679 32.7881 28.1814C33.0357 28.2948 33.2576 28.4577 33.44 28.66C32.7226 29.7569 31.8766 30.764 30.92 31.66H30.96ZM16 10C16 9.60444 16.1173 9.21776 16.3371 8.88886C16.5568 8.55996 16.8692 8.30362 17.2346 8.15224C17.6001 8.00087 18.0022 7.96126 18.3902 8.03843C18.7781 8.1156 19.1345 8.30608 19.4142 8.58579C19.6939 8.86549 19.8844 9.22186 19.9616 9.60982C20.0387 9.99778 19.9991 10.3999 19.8478 10.7654C19.6964 11.1308 19.44 11.4432 19.1111 11.6629C18.7822 11.8827 18.3956 12 18 12C17.4696 12 16.9609 11.7893 16.5858 11.4142C16.2107 11.0391 16 10.5304 16 10ZM22 32C22 32.3956 21.8827 32.7822 21.6629 33.1111C21.4432 33.44 21.1308 33.6964 20.7654 33.8478C20.3999 33.9991 19.9978 34.0387 19.6098 33.9616C19.2219 33.8844 18.8655 33.6939 18.5858 33.4142C18.3061 33.1345 18.1156 32.7781 18.0384 32.3902C17.9613 32.0022 18.0009 31.6001 18.1522 31.2346C18.3036 30.8692 18.56 30.5568 18.8889 30.3371C19.2178 30.1173 19.6044 30 20 30C20.5304 30 21.0391 30.2107 21.4142 30.5858C21.7893 30.9609 22 31.4696 22 32Z" fill="#E47E7A"/>
</svg>
