<svg width="138" height="43" viewBox="0 0 138 43" fill="none" xmlns="http://www.w3.org/2000/svg">
<path d="M46.793 36.4746C44.7891 36.4746 43.0254 36.2812 41.502 35.8945C39.9902 35.5078 38.584 35.0273 37.2832 34.4531V28.2305H37.8809C39.1934 29.3438 40.6406 30.1992 42.2227 30.7969C43.8047 31.3945 45.3398 31.6934 46.8281 31.6934C47.2031 31.6934 47.6953 31.6523 48.3047 31.5703C48.9258 31.4883 49.4238 31.3594 49.7988 31.1836C50.2559 30.9844 50.6426 30.709 50.959 30.3574C51.2754 29.9941 51.4336 29.5195 51.4336 28.9336C51.4336 28.2773 51.1758 27.7441 50.6602 27.334C50.1445 26.9238 49.5293 26.625 48.8145 26.4375C47.9238 26.2031 46.9688 25.9805 45.9492 25.7695C44.9414 25.5586 43.998 25.3008 43.1191 24.9961C41.0918 24.2812 39.6387 23.3203 38.7598 22.1133C37.8809 20.9062 37.4414 19.3945 37.4414 17.5781C37.4414 15.1289 38.4785 13.1484 40.5527 11.6367C42.627 10.1133 45.2168 9.35156 48.3223 9.35156C49.8809 9.35156 51.4277 9.50977 52.9629 9.82617C54.5098 10.1426 55.8926 10.5703 57.1113 11.1094V17.0859H56.5312C55.5586 16.2539 54.3691 15.5508 52.9629 14.9766C51.5684 14.4023 50.1328 14.1152 48.6562 14.1152C48.082 14.1152 47.5664 14.1562 47.1094 14.2383C46.6523 14.3203 46.1719 14.4785 45.668 14.7129C45.2578 14.9004 44.9004 15.1816 44.5957 15.5566C44.3027 15.9199 44.1562 16.3301 44.1562 16.7871C44.1562 17.4551 44.3906 17.9883 44.8594 18.3867C45.3398 18.7734 46.2598 19.125 47.6191 19.4414C48.498 19.6406 49.3418 19.834 50.1504 20.0215C50.9707 20.209 51.8438 20.4668 52.7695 20.7949C54.5859 21.4512 55.9336 22.3359 56.8125 23.4492C57.7031 24.5508 58.1484 26.0098 58.1484 27.8262C58.1484 30.4277 57.123 32.5195 55.0723 34.1016C53.0332 35.6836 50.2734 36.4746 46.793 36.4746ZM83.6191 36H77.0449V24.3984H68.0977V36H61.5234V9.82617H68.0977V19.4062H77.0449V9.82617H83.6191V36ZM112.887 22.9219C112.887 27.1523 111.756 30.4805 109.494 32.9062C107.232 35.332 104.133 36.5449 100.195 36.5449C96.2461 36.5449 93.1465 35.3203 90.8965 32.8711C88.6465 30.4102 87.5215 27.0938 87.5215 22.9219C87.5215 18.7148 88.6465 15.3926 90.8965 12.9551C93.1465 10.5059 96.2461 9.28125 100.195 9.28125C104.133 9.28125 107.232 10.5 109.494 12.9375C111.756 15.3633 112.887 18.6914 112.887 22.9219ZM106.102 22.9043C106.102 21.3457 105.938 20.0215 105.609 18.9316C105.293 17.8301 104.865 16.9277 104.326 16.2246C103.764 15.5098 103.125 15 102.41 14.6953C101.707 14.3789 100.975 14.2207 100.213 14.2207C99.4043 14.2207 98.6719 14.3672 98.0156 14.6602C97.3594 14.9414 96.7266 15.4512 96.1172 16.1895C95.5781 16.8691 95.1387 17.7715 94.7988 18.8965C94.4707 20.0215 94.3066 21.3633 94.3066 22.9219C94.3066 24.5273 94.4648 25.8633 94.7812 26.9297C95.0977 27.9844 95.5312 28.8691 96.082 29.584C96.6445 30.3105 97.2832 30.832 97.998 31.1484C98.7129 31.4531 99.4512 31.6055 100.213 31.6055C100.986 31.6055 101.736 31.4414 102.463 31.1133C103.189 30.7734 103.816 30.252 104.344 29.5488C104.906 28.7871 105.34 27.9023 105.645 26.8945C105.949 25.875 106.102 24.5449 106.102 22.9043ZM136.934 18.0879C136.934 19.3066 136.74 20.4668 136.354 21.5684C135.967 22.6699 135.41 23.5898 134.684 24.3281C134.238 24.7852 133.746 25.207 133.207 25.5938C132.68 25.9805 132.094 26.3086 131.449 26.5781C130.805 26.8477 130.102 27.0586 129.34 27.2109C128.59 27.3633 127.746 27.4395 126.809 27.4395H123.363V36H116.789V9.82617H126.949C128.461 9.82617 129.762 9.9668 130.852 10.248C131.953 10.5176 132.949 10.9512 133.84 11.5488C134.824 12.2051 135.586 13.084 136.125 14.1855C136.664 15.2754 136.934 16.5762 136.934 18.0879ZM130.184 18.2461C130.184 17.5078 130.008 16.875 129.656 16.3477C129.305 15.8086 128.883 15.4395 128.391 15.2402C127.77 14.9707 127.172 14.8184 126.598 14.7832C126.035 14.7363 125.268 14.7129 124.295 14.7129H123.363V22.5527H123.82C124.441 22.5527 125.027 22.5469 125.578 22.5352C126.129 22.5234 126.609 22.4824 127.02 22.4121C127.371 22.3535 127.74 22.2422 128.127 22.0781C128.525 21.9023 128.83 21.709 129.041 21.498C129.486 21.0645 129.785 20.6133 129.938 20.1445C130.102 19.6758 130.184 19.043 130.184 18.2461Z" fill="#E47E7A"/>
<path d="M32 12C32 8.68629 29.3137 6 26 6H0V15.0588C0 18.3725 2.68629 21.0588 6 21.0588H32V12Z" fill="#C4B48A"/>
<path d="M32 28.9412C32 25.6274 29.3137 22.9412 26 22.9412H0V32C0 35.3137 2.68629 38 6 38H32V28.9412Z" fill="#E47E7A"/>
</svg>
